<svg width="122" height="23" viewBox="0 0 122 23" fill="none" xmlns="http://www.w3.org/2000/svg">
<path d="M82.4776 5.44128C81.9148 5.44128 81.3521 5.44128 80.7894 5.44128C80.4142 5.44128 80.0766 5.53604 79.7765 5.76345C79.3263 6.10457 79.2137 6.5973 79.2137 7.12793C79.2137 9.4589 79.2137 11.8088 79.2137 14.1398V16.4518C79.2137 16.7361 79.4388 16.9825 79.7389 16.9825H81.4646C81.746 16.9825 81.9899 16.755 81.9899 16.4518V14.6136V14.1588V8.20813H84.5221C84.8035 8.20813 85.0474 7.98072 85.0474 7.67751V5.97191C85.0474 5.68765 84.8223 5.44128 84.5221 5.44128H82.4776Z" fill="#3133FF"/>
<path d="M21.5151 11.335H15.2312C14.8936 11.335 14.5935 11.5624 14.5372 11.9035C14.2746 13.5144 12.8865 14.7462 11.2171 14.7462C9.36009 14.7462 7.85947 13.2301 7.85947 11.354C7.85947 9.68627 9.04121 8.30285 10.6169 8.01858C10.9732 7.94278 11.2359 7.65851 11.2359 7.27949V0.949849C11.2359 0.400269 10.7857 -0.0356043 10.2417 0.00229771C4.48309 0.513976 0 5.38439 0 11.3161C0 17.5889 5.02706 22.6677 11.2359 22.6677C17.107 22.6677 21.9277 18.1195 22.4342 12.3394C22.4717 11.7709 22.059 11.335 21.5151 11.335Z" fill="#3133FF"/>
<path d="M22.4342 9.11776V1.25309C22.4342 0.57085 21.8715 0.00231934 21.1962 0.00231934H13.4118C12.699 0.00231934 12.3426 0.874067 12.849 1.36679L21.0649 9.66734C21.5714 10.179 22.4342 9.81895 22.4342 9.11776Z" fill="#3133FF"/>
<path d="M36.7276 17.2099C33.3324 17.2099 30.8564 14.6704 30.8564 11.2213C30.8564 7.7533 33.3324 5.21387 36.7276 5.21387C39.4474 5.21387 41.5858 6.86261 42.2611 9.28834C42.3361 9.55365 42.1485 9.81897 41.8672 9.81897H39.7663C39.6162 9.81897 39.4662 9.72421 39.3911 9.5726C38.9222 8.58715 37.9093 7.92386 36.69 7.92386C34.9456 7.92386 33.6513 9.30729 33.6513 11.2024C33.6513 13.0975 34.9456 14.4809 36.69 14.4809C37.8905 14.4809 38.9222 13.8176 39.3911 12.8322C39.4662 12.6806 39.5975 12.5858 39.7663 12.5858H41.8672C42.1485 12.5858 42.3361 12.8511 42.2611 13.1164C41.567 15.599 39.4287 17.2099 36.7276 17.2099Z" fill="#3133FF"/>
<path d="M43.7242 11.2403C43.7242 7.71543 46.2565 5.23285 49.7079 5.23285C53.1968 5.23285 55.6916 7.71543 55.6916 11.2403C55.6916 14.7652 53.1781 17.2289 49.7079 17.2289C46.2565 17.2099 43.7242 14.7463 43.7242 11.2403ZM52.8967 11.2403C52.8967 9.32627 51.6024 7.9618 49.7267 7.9618C47.8697 7.9618 46.5566 9.32627 46.5566 11.2403C46.5566 13.1165 47.8697 14.5189 49.7267 14.5189C51.6024 14.4999 52.8967 13.1165 52.8967 11.2403Z" fill="#3133FF"/>
<path d="M69.9662 4.62637V1.84057C69.9662 1.61316 70.1538 1.42365 70.3789 1.42365H72.3297C72.5548 1.42365 72.7423 1.61316 72.7423 1.84057V5.46021H76.5501C76.7752 5.46021 76.9628 5.64972 76.9628 5.87714V7.60168C76.9628 7.82909 76.7752 8.0186 76.5501 8.0186H72.7423V12.4152C72.7423 13.7987 73.3051 14.4241 74.7869 14.4241C75.2371 14.4241 75.7811 14.4051 76.5126 14.3293C76.7565 14.3103 76.9628 14.4999 76.9628 14.7462V16.6034C76.9628 16.8119 76.8128 17.0014 76.5877 17.0203C75.7623 17.1151 74.937 17.153 74.243 17.153C71.5231 17.153 69.9662 15.6748 69.9662 12.6995V7.99965V4.62637Z" fill="#3133FF"/>
<path d="M85.6664 11.2403C85.6664 7.71543 88.1986 5.23285 91.6501 5.23285C95.139 5.23285 97.6338 7.71543 97.6338 11.2403C97.6338 14.7652 95.1202 17.2289 91.6501 17.2289C88.1986 17.2099 85.6664 14.7463 85.6664 11.2403ZM94.8201 11.2403C94.8201 9.32627 93.5258 7.9618 91.6501 7.9618C89.793 7.9618 88.48 9.32627 88.48 11.2403C88.48 13.1165 89.793 14.5189 91.6501 14.5189C93.5446 14.4999 94.8201 13.1165 94.8201 11.2403Z" fill="#3133FF"/>
<path d="M102.379 1.82165V16.5656C102.379 16.793 102.192 16.9825 101.967 16.9825H100.016C99.7909 16.9825 99.6033 16.793 99.6033 16.5656V1.82165C99.6033 1.59423 99.7909 1.40472 100.016 1.40472H101.967C102.192 1.40472 102.379 1.59423 102.379 1.82165Z" fill="#3133FF"/>
<path d="M108.007 1.82165V16.5656C108.007 16.793 107.819 16.9825 107.594 16.9825H105.643C105.418 16.9825 105.231 16.793 105.231 16.5656V1.82165C105.231 1.59423 105.418 1.40472 105.643 1.40472H107.594C107.819 1.40472 108.007 1.59423 108.007 1.82165Z" fill="#3133FF"/>
<path d="M67.7153 14.2156C67.7153 12.8511 67.7153 11.4867 67.7153 10.1222C67.7153 9.70526 67.6965 9.26939 67.6402 8.85246C67.5652 8.13233 67.3026 7.45009 66.8712 6.86261C66.0833 5.80135 65.0141 5.25177 63.7386 5.21387C62.163 5.21387 60.5686 5.21387 58.9929 5.21387C58.7303 5.21387 58.4677 5.27072 58.2239 5.38443C57.5861 5.68764 57.3423 6.23722 57.3423 6.91946C57.3423 9.4968 57.3423 12.0931 57.3423 14.6704V16.4708C57.3423 16.755 57.5674 17.0014 57.8675 17.0014H59.6495C59.9308 17.0014 60.1747 16.774 60.1747 16.4708V14.462C60.1747 12.2637 60.1747 10.596 60.1747 8.41659C60.1747 8.35974 60.1747 8.28393 60.1747 8.22708C60.1747 8.11337 60.2122 8.05652 60.3435 8.05652C61.2626 8.07547 62.2005 8.03757 63.1196 8.09442C63.8699 8.15128 64.4327 8.5303 64.7328 9.25044C64.9204 9.70526 64.9579 10.1601 64.9579 10.6339C64.9579 11.7709 64.9579 15.1632 64.9579 16.4708C64.9579 16.755 65.183 17.0014 65.4831 17.0014H67.2651C67.5464 17.0014 67.7903 16.774 67.7903 16.4708L67.7153 14.2156Z" fill="#3133FF"/>
<path d="M118.755 13.5523C118.624 13.5523 118.492 13.6092 118.399 13.704C117.817 14.3483 116.973 14.7273 115.979 14.7273C114.347 14.7273 113.128 13.685 112.771 12.1879H115.829H119.224H121.512C121.756 12.1879 121.962 11.9984 121.981 11.752C122 11.5056 122 11.2593 122 10.994C121.887 7.71543 119.168 5.19494 115.923 5.23284C112.509 5.27075 110.014 7.75333 110.014 11.2403C110.014 14.7652 112.546 17.2288 115.998 17.2288C118.436 17.2288 120.387 16.016 121.343 14.1019C121.475 13.8556 121.287 13.5523 121.006 13.5523H118.755ZM115.979 7.75333C117.479 7.75333 118.605 8.58718 119.074 9.8569H112.884C113.353 8.58718 114.497 7.75333 115.979 7.75333Z" fill="#3133FF"/>
</svg>
